<?xml version="1.0" encoding="UTF-8"?>
<svg id="_レイヤー_2" data-name="レイヤー 2" xmlns="http://www.w3.org/2000/svg" viewBox="0 0 157.52 568">
  <defs>
    <style>
      .cls-1 {
        fill: none;
        stroke: #f5ae16;
        stroke-miterlimit: 10;
        stroke-width: 2px;
      }
    </style>
  </defs>
  <g id="_レイヤー_1-2" data-name="レイヤー 1">
    <g>
      <text/>
      <g>
        <path class="cls-1" d="m45.38,458.9c-1.8-2.14-2.69-5.46-2.69-9.93v-43.41c0-2.75-.61-4.72-1.84-5.95-1.23-1.21-3.2-1.84-5.95-1.84H8.77c-2.73,0-4.72.63-5.93,1.84-1.23,1.23-1.84,3.2-1.84,5.95v52.69c0,18,3.64,31.36,10.89,40.07,7.28,8.72,18.4,13.07,33.39,13.07h67.17c14.99,0,26.07-4.36,33.27-13.07,7.2-8.72,10.8-22.07,10.8-40.07v-52.69c0-2.75-.63-4.72-1.84-5.95-1.23-1.21-3.2-1.84-5.95-1.84h-25.69c-2.75,0-4.72.63-5.95,1.84-1.21,1.23-1.84,3.2-1.84,5.95v43.41c0,4.47-.81,7.79-2.48,9.93-1.65,2.18-4.28,3.26-7.88,3.26h-51.41c-3.6,0-6.31-1.08-8.11-3.26Zm52.03,38.96c1.06,0,1.93.87,1.93,1.93s-.87,1.93-1.93,1.93h-37.31c-1.06,0-1.93-.87-1.93-1.93s.87-1.93,1.93-1.93h37.31Zm0-12.24c1.06,0,1.93.85,1.93,1.91s-.87,1.93-1.93,1.93h-37.31c-1.06,0-1.93-.85-1.93-1.93s.87-1.91,1.93-1.91h37.31Zm-55.48,2.01c0,2.2-1.78,3.96-3.96,3.96h-8.85c-2.2,0-3.96-1.76-3.96-3.96v-8.85c0-2.2,1.76-3.96,3.96-3.96h8.85c2.18,0,3.96,1.76,3.96,3.96v8.85Zm55.48-14.48c1.06,0,1.93.87,1.93,1.93s-.87,1.93-1.93,1.93h-37.31c-1.06,0-1.93-.87-1.93-1.93s.87-1.93,1.93-1.93h37.31Z"/>
        <path class="cls-1" d="m56.98,515.01c-.4.42-.61,1.08-.61,2.01v19.29c0,1.46.23,3.15.68,5.04.45,1.91,1.17,4.13,2.12,6.65l6.25,16.6c.3.83.76,1.44,1.35,1.82.61.4,1.35.59,2.25.59h19.36c.99,0,1.74-.19,2.35-.59.61-.38,1.04-.99,1.33-1.82l6.27-16.6c.97-2.52,1.67-4.74,2.12-6.65.45-1.89.68-3.58.68-5.04v-19.29c0-.93-.21-1.59-.63-2.01-.4-.42-1.04-.63-1.97-.63h-13.89v26.17l-3.39,11.1c-.17.44-.4.76-.61.95-.23.21-.47.3-.76.3h-1.8c-.28,0-.53-.09-.76-.3-.21-.19-.42-.51-.61-.95l-3.39-11.1v-26.17h-14.4c-.89,0-1.57.21-1.97.63Z"/>
        <path class="cls-1" d="m105.5,443.78c-.45.11-.99.28-1.59.51l-4,1.52c-.19.08-.34.19-.44.34-.09.13-.13.32-.13.55v4.72c0,.23.04.42.13.57.09.15.25.25.44.32l4,1.52c.61.25,1.14.42,1.59.53s.85.15,1.21.15h4.62c.23,0,.38-.04.47-.13.11-.11.15-.27.15-.49v-3.37h-6.27l-2.67-.83c-.09-.04-.17-.09-.23-.15-.04-.06-.06-.11-.06-.19v-.44c0-.06.02-.11.06-.17.06-.06.13-.11.23-.15l2.67-.83h6.27v-3.51c0-.21-.04-.38-.15-.47-.09-.09-.25-.15-.47-.15h-4.62c-.36,0-.76.06-1.21.17Z"/>
        <path class="cls-1" d="m105.5,427.81c-.45.11-.99.28-1.59.51l-4,1.53c-.19.06-.34.17-.44.32-.09.15-.13.32-.13.55v4.72c0,.23.04.42.13.57.09.15.25.25.44.32l4,1.52c.61.25,1.14.42,1.59.53s.85.17,1.21.17h4.62c.23,0,.38-.06.47-.15.11-.11.15-.27.15-.49v-3.37h-6.27l-2.67-.83c-.09-.04-.17-.09-.23-.15-.04-.04-.06-.11-.06-.17v-.45c0-.06.02-.11.06-.17.06-.06.13-.11.23-.15l2.67-.83h6.27v-3.51c0-.21-.04-.38-.15-.47-.09-.09-.25-.15-.47-.15h-4.62c-.36,0-.76.06-1.21.17Z"/>
        <path class="cls-1" d="m105.5,411.91c-.45.11-.99.28-1.59.51l-4,1.53c-.19.06-.34.17-.44.32-.09.15-.13.32-.13.55v4.72c0,.23.04.42.13.57.09.15.25.25.44.32l4,1.53c.61.23,1.14.4,1.59.51s.85.17,1.21.17h4.62c.23,0,.38-.06.47-.15.11-.09.15-.27.15-.49v-3.37h-6.27l-2.67-.83c-.09-.04-.17-.09-.23-.13-.04-.06-.06-.13-.06-.19v-.44c0-.08.02-.13.06-.19.06-.06.13-.09.23-.15l2.67-.81h6.27v-3.51c0-.23-.04-.4-.15-.49-.09-.09-.25-.15-.47-.15h-4.62c-.36,0-.76.06-1.21.17Z"/>
        <path class="cls-1" d="m45.7,411.86c-.09.09-.15.27-.15.49v3.37h6.27l2.67.83c.11.04.19.09.23.13.04.06.08.13.08.19v.44c0,.08-.04.13-.08.19-.04.06-.11.11-.23.15l-2.67.83h-6.27v3.51c0,.21.06.38.15.47s.27.15.47.15h4.64c.34,0,.74-.06,1.21-.17.45-.11.99-.28,1.59-.51l3.98-1.53c.19-.06.34-.17.44-.32.09-.15.13-.32.13-.55v-4.72c0-.23-.04-.42-.13-.57-.09-.15-.25-.25-.44-.32l-3.98-1.53c-.61-.23-1.14-.4-1.59-.51-.47-.11-.87-.17-1.21-.17h-4.64c-.21,0-.38.06-.47.15Z"/>
        <path class="cls-1" d="m45.7,427.83c-.09.09-.15.27-.15.49v3.37h6.27l2.67.83c.11.04.19.09.23.13.04.06.08.11.08.19v.44c0,.08-.04.13-.08.19-.04.06-.11.09-.23.15l-2.67.81h-6.27v3.51c0,.23.06.4.15.49s.27.15.47.15h4.64c.34,0,.74-.06,1.21-.17.45-.11.99-.28,1.59-.51l3.98-1.53c.19-.08.34-.17.44-.32.09-.15.13-.32.13-.55v-4.72c0-.25-.04-.42-.13-.57-.09-.15-.25-.27-.44-.32l-3.98-1.53c-.61-.23-1.14-.4-1.59-.51-.47-.11-.87-.17-1.21-.17h-4.64c-.21,0-.38.06-.47.15Z"/>
        <path class="cls-1" d="m45.7,443.73c-.09.09-.15.25-.15.47v3.39h6.27l2.67.81c.11.06.19.09.23.15.04.06.08.11.08.19v.44c0,.08-.04.13-.08.19-.04.06-.11.09-.23.15l-2.67.81h-6.27v3.51c0,.23.06.38.15.49.09.09.27.13.47.13h4.64c.34,0,.74-.04,1.21-.15.45-.11.99-.28,1.59-.53l3.98-1.52c.19-.08.34-.19.44-.32.09-.15.13-.34.13-.55v-4.72c0-.25-.04-.44-.13-.57-.09-.15-.25-.27-.44-.32l-3.98-1.53c-.61-.23-1.14-.4-1.59-.51-.47-.11-.87-.17-1.21-.17h-4.64c-.21,0-.38.06-.47.15Z"/>
      </g>
      <g>
        <g>
          <path class="cls-1" d="m83.38,348.85c-1.56.38-3.38.97-5.46,1.77l-13.62,5.22c-.68.24-1.18.61-1.5,1.11-.32.5-.48,1.13-.48,1.89v16.14c0,.8.16,1.45.48,1.95.32.5.82.87,1.5,1.11l13.62,5.22c2.08.8,3.9,1.39,5.46,1.77,1.56.38,2.94.57,4.14.57h15.84c.76,0,1.31-.17,1.65-.51s.51-.89.51-1.65v-11.58h-21.48l-9.12-2.82c-.36-.16-.62-.33-.78-.51-.16-.18-.24-.39-.24-.63v-1.5c0-.24.08-.45.24-.63.16-.18.42-.35.78-.51l9.12-2.82h21.48v-12c0-.76-.17-1.31-.51-1.65-.34-.34-.89-.51-1.65-.51h-15.84c-1.2,0-2.58.19-4.14.57Z"/>
          <path class="cls-1" d="m62.83,310.33c-.34.34-.51.89-.51,1.65v26.76c0,.76.17,1.31.51,1.65.34.34.89.51,1.65.51h38.88c.76,0,1.31-.17,1.65-.51.34-.34.51-.89.51-1.65v-9.3c0-.76-.17-1.31-.51-1.65-.34-.34-.89-.51-1.65-.51h-11.82v-10.44c0-.76-.17-1.31-.51-1.65-.34-.34-.89-.51-1.65-.51h-7.2c-.76,0-1.31.17-1.65.51s-.51.89-.51,1.65v10.44h-6.24v-15.3c0-.76-.17-1.31-.51-1.65s-.89-.51-1.65-.51h-7.14c-.76,0-1.31.17-1.65.51Z"/>
          <path class="cls-1" d="m73.66,273.82c0-.76-.17-1.31-.51-1.65-.34-.34-.89-.51-1.65-.51h-7.02c-.76,0-1.31.17-1.65.51s-.51.89-.51,1.65v27.84c0,.76.17,1.31.51,1.65s.89.51,1.65.51h38.88c.76,0,1.31-.17,1.65-.51.34-.34.51-.89.51-1.65v-27.84c0-.76-.17-1.31-.51-1.65-.34-.34-.89-.51-1.65-.51h-7.02c-.76,0-1.31.17-1.65.51s-.51.89-.51,1.65v16.56h-5.16v-11.7c0-.76-.17-1.31-.51-1.65-.34-.34-.89-.51-1.65-.51h-6.42c-.76,0-1.31.17-1.65.51-.34.34-.51.89-.51,1.65v11.7h-4.62v-16.56Z"/>
        </g>
        <g>
          <path class="cls-1" d="m133.02,348.85c-1.57.38-3.38.97-5.46,1.77l-13.62,5.22c-.68.24-1.18.61-1.5,1.11-.32.5-.49,1.13-.49,1.89v16.14c0,.8.17,1.45.49,1.95.32.5.82.87,1.5,1.11l13.62,5.22c2.08.8,3.89,1.39,5.46,1.77,1.55.38,2.93.57,4.14.57h15.83c.77,0,1.32-.17,1.66-.51s.51-.89.51-1.65v-11.58h-21.49l-9.11-2.82c-.36-.16-.62-.33-.78-.51-.16-.18-.25-.39-.25-.63v-1.5c0-.24.09-.45.25-.63.16-.18.42-.35.78-.51l9.11-2.82h21.49v-12c0-.76-.17-1.31-.51-1.65-.34-.34-.89-.51-1.66-.51h-15.83c-1.21,0-2.59.19-4.14.57Z"/>
          <path class="cls-1" d="m112.47,298.75c-.34.34-.52.89-.52,1.65v9.72c0,.64.15,1.17.43,1.59.28.42.74.81,1.38,1.17l9.77,5.34c.37.2.63.37.79.51.16.14.24.33.24.57v.54c0,.24-.08.43-.24.57-.16.14-.42.31-.79.51l-9.77,5.4c-.64.36-1.1.75-1.38,1.17-.28.42-.43.95-.43,1.59v9.66c0,.76.18,1.31.52,1.65.34.34.89.51,1.65.51h38.87c.77,0,1.32-.17,1.66-.51.34-.34.51-.89.51-1.65v-8.94c0-.76-.17-1.31-.51-1.65-.34-.34-.89-.51-1.66-.51h-21.12l6.54-3.54c.69-.36,1.17-.79,1.48-1.29.3-.5.44-1.13.44-1.89v-2.4c0-.76-.14-1.39-.44-1.89-.31-.5-.79-.93-1.48-1.29l-6.54-3.54h21.12c.77,0,1.32-.17,1.66-.51s.51-.89.51-1.65v-9.24c0-.76-.17-1.31-.51-1.65s-.89-.51-1.66-.51h-38.87c-.76,0-1.31.17-1.65.51Z"/>
          <path class="cls-1" d="m115.2,258.28c-2.17,2-3.25,5.72-3.25,11.16v18.36c0,.76.18,1.31.52,1.65s.89.51,1.65.51h38.87c.77,0,1.32-.17,1.66-.51.34-.34.51-.89.51-1.65v-9.3c0-.76-.17-1.31-.51-1.65-.34-.34-.89-.51-1.66-.51h-9.96v-6.9c0-5.44-1.08-9.16-3.24-11.16-2.15-2-4.97-3-8.46-3h-7.67c-3.48,0-6.3,1-8.46,3Zm14.09,9.96c.77,0,1.45.18,2.04.54.61.36.91,1.12.91,2.28v5.4h-9.06v-5.4c0-1.16.3-1.92.89-2.28.61-.36,1.29-.54,2.05-.54h3.17Z"/>
          <path class="cls-1" d="m133.02,213.19c-1.57.38-3.38.97-5.46,1.77l-13.62,5.22c-.68.24-1.18.61-1.5,1.11-.32.5-.49,1.13-.49,1.89v16.14c0,.8.17,1.45.49,1.95.32.5.82.87,1.5,1.11l13.62,5.22c2.08.8,3.89,1.39,5.46,1.77,1.55.38,2.93.57,4.14.57h15.83c.77,0,1.32-.17,1.66-.51.34-.34.51-.89.51-1.65v-11.58h-21.49l-9.11-2.82c-.36-.16-.62-.33-.78-.51-.16-.18-.25-.39-.25-.63v-1.5c0-.24.09-.45.25-.63.16-.18.42-.35.78-.51l9.11-2.82h21.49v-12c0-.76-.17-1.31-.51-1.65s-.89-.51-1.66-.51h-15.83c-1.21,0-2.59.19-4.14.57Z"/>
          <path class="cls-1" d="m112.47,168.85c-.34.34-.52.89-.52,1.65v9c0,.76.18,1.31.52,1.65.34.34.89.51,1.65.51h12.78l-13.33,11.64c-.59.52-1.01,1.05-1.25,1.59-.25.54-.37,1.19-.37,1.95v6.24c0,.76.18,1.31.52,1.65.34.34.89.51,1.65.51h38.87c.77,0,1.32-.17,1.66-.51s.51-.89.51-1.65v-9c0-.76-.17-1.31-.51-1.65s-.89-.51-1.66-.51h-19.79l12.42-10.26h7.37c.77,0,1.32-.17,1.66-.51s.51-.89.51-1.65v-9c0-.76-.17-1.31-.51-1.65-.34-.34-.89-.51-1.66-.51h-38.87c-.76,0-1.31.17-1.65.51Z"/>
          <path class="cls-1" d="m123.3,130.06c0-.76-.17-1.31-.52-1.65-.33-.34-.88-.51-1.64-.51h-7.02c-.76,0-1.31.17-1.65.51s-.52.89-.52,1.65v27.84c0,.76.18,1.31.52,1.65s.89.51,1.65.51h38.87c.77,0,1.32-.17,1.66-.51.34-.34.51-.89.51-1.65v-27.84c0-.76-.17-1.31-.51-1.65-.34-.34-.89-.51-1.66-.51h-7.01c-.76,0-1.31.17-1.66.51-.33.34-.5.89-.5,1.65v16.56h-5.16v-11.7c0-.76-.17-1.31-.51-1.65-.34-.34-.89-.51-1.66-.51h-6.42c-.75,0-1.3.17-1.65.51-.33.34-.51.89-.51,1.65v11.7h-4.61v-16.56Z"/>
          <path class="cls-1" d="m132.45,86.47c-.34.34-.51.89-.51,1.65v8.7c0,.76.17,1.31.51,1.65.33.34.89.51,1.65.51h9.72v8.22h-29.7c-.76,0-1.31.17-1.65.51s-.52.89-.52,1.65v9.3c0,.76.18,1.31.52,1.65s.89.51,1.65.51h38.87c.77,0,1.32-.17,1.66-.51.34-.34.51-.89.51-1.65v-30.54c0-.76-.17-1.31-.51-1.65-.34-.34-.89-.51-1.66-.51h-18.89c-.76,0-1.32.17-1.65.51Z"/>
          <path class="cls-1" d="m132.45,44.77c-.34.34-.51.89-.51,1.65v8.7c0,.76.17,1.31.51,1.65.33.34.89.51,1.65.51h9.72v8.22h-29.7c-.76,0-1.31.17-1.65.51-.34.34-.52.89-.52,1.65v9.3c0,.76.18,1.31.52,1.65.34.34.89.51,1.65.51h38.87c.77,0,1.32-.17,1.66-.51s.51-.89.51-1.65v-30.54c0-.76-.17-1.31-.51-1.65-.34-.34-.89-.51-1.66-.51h-18.89c-.76,0-1.32.17-1.65.51Z"/>
          <path class="cls-1" d="m133.02,1.57c-1.57.38-3.38.97-5.46,1.77l-13.62,5.22c-.68.24-1.18.61-1.5,1.11-.32.5-.49,1.13-.49,1.89v16.14c0,.8.17,1.45.49,1.95.32.5.82.87,1.5,1.11l13.62,5.22c2.08.8,3.89,1.39,5.46,1.77,1.55.38,2.93.57,4.14.57h15.83c.77,0,1.32-.17,1.66-.51.34-.34.51-.89.51-1.65v-11.58h-21.49l-9.11-2.82c-.36-.16-.62-.33-.78-.51-.16-.18-.25-.39-.25-.63v-1.5c0-.24.09-.45.25-.63.16-.18.42-.35.78-.51l9.11-2.82h21.49V3.16c0-.76-.17-1.31-.51-1.65s-.89-.51-1.66-.51h-15.83c-1.21,0-2.59.19-4.14.57Z"/>
        </g>
      </g>
    </g>
  </g>
</svg>