<?xml version="1.0" encoding="UTF-8"?>
<svg id="_レイヤー_2" data-name="レイヤー 2" xmlns="http://www.w3.org/2000/svg" viewBox="0 0 169.22 155.52">
  <defs>
    <style>
      .cls-1 {
        fill: #e3a429;
        stroke-width: 0px;
      }
    </style>
  </defs>
  <g id="_レイヤー_1-2" data-name="レイヤー 1">
    <g>
      <path class="cls-1" d="m64.38,52.49v51.41c0,3.6-1.08,6.23-3.26,7.88-2.14,1.67-5.46,2.48-9.93,2.48H7.79c-2.75,0-4.72.63-5.95,1.84C.63,117.32,0,119.29,0,122.04v25.69c0,2.75.63,4.72,1.84,5.95,1.23,1.21,3.2,1.84,5.95,1.84h52.69c18,0,31.36-3.6,40.07-10.8,8.72-7.2,13.07-18.28,13.07-33.27V44.28c0-14.99-4.36-26.11-13.07-33.39C91.84,3.64,78.48,0,60.48,0H7.79C5.04,0,3.07.61,1.84,1.84.63,3.05,0,5.04,0,7.77v26.13c0,2.75.63,4.72,1.84,5.95,1.23,1.23,3.2,1.84,5.95,1.84h43.41c4.47,0,7.79.89,9.93,2.69,2.18,1.8,3.26,4.51,3.26,8.11Zm35.7,6.61c0-1.06.87-1.93,1.93-1.93s1.93.87,1.93,1.93v37.31c0,1.06-.87,1.93-1.93,1.93s-1.93-.87-1.93-1.93v-37.31Zm-12.24,0c0-1.06.85-1.93,1.91-1.93s1.93.87,1.93,1.93v37.31c0,1.06-.85,1.93-1.93,1.93s-1.91-.87-1.91-1.93v-37.31Zm-6.84-18.17c-2.2,0-3.96-1.78-3.96-3.96v-8.85c0-2.2,1.76-3.96,3.96-3.96h8.85c2.2,0,3.96,1.76,3.96,3.96v8.85c0,2.18-1.76,3.96-3.96,3.96h-8.85Zm-5.63,18.17c0-1.06.87-1.93,1.93-1.93s1.93.87,1.93,1.93v37.31c0,1.06-.87,1.93-1.93,1.93s-1.93-.87-1.93-1.93v-37.31Z"/>
      <path class="cls-1" d="m116.6,57.95v10.88c0,.97,0,2.8,0,2.8v.72s26.17,0,26.17,0l11.1,3.39c.44.19.76.4.95.61.21.23.3.47.3.76v1.8c0,.28-.09.53-.3.76-.19.21-.51.44-.95.61l-11.1,3.39h-26.17s0,.72,0,.72v2.58s0,10.59,0,10.59c0,.93.21,1.57.63,1.97.42.42,1.08.63,2.01.63h19.29c1.46,0,3.15-.23,5.04-.68,1.91-.45,4.13-1.16,6.65-2.12l16.6-6.27c.83-.28,1.44-.72,1.82-1.33.4-.61.59-1.36.59-2.35v-19.36c0-.91-.19-1.65-.59-2.25-.38-.59-.99-1.04-1.82-1.35l-16.6-6.25c-2.52-.95-4.74-1.67-6.65-2.12-1.89-.45-3.58-.68-5.04-.68h-19.29c-.93,0-1.59.21-2.01.61-.42.4-.63,1.08-.63,1.97Z"/>
      <path class="cls-1" d="m45.83,105.71v4.62c0,.23.06.38.15.47.09.11.27.15.47.15h2.65c.23,0,.68,0,.68,0h.17s0-6.27,0-6.27l.83-2.67c.04-.09.09-.17.15-.23.06-.04.11-.06.17-.06h.44c.08,0,.13.02.19.06.06.06.11.13.15.23l.83,2.67v6.27s.17,0,.17,0h.63s2.58,0,2.58,0c.23,0,.38-.04.49-.15.09-.09.13-.25.13-.47v-4.62c0-.36-.04-.76-.15-1.21s-.28-.99-.53-1.59l-1.52-4c-.08-.19-.17-.34-.32-.44-.15-.09-.34-.13-.57-.13h-4.72c-.23,0-.42.04-.55.13-.15.09-.27.25-.34.44l-1.52,4c-.23.61-.4,1.14-.51,1.59s-.17.85-.17,1.21Z"/>
      <path class="cls-1" d="m29.86,105.71v4.62c0,.23.06.38.15.47.09.11.27.15.47.15h2.65c.25,0,.68,0,.68,0h.17s0-6.27,0-6.27l.83-2.67c.04-.09.09-.17.15-.23.06-.04.11-.06.17-.06h.45c.06,0,.13.02.17.06.06.06.11.13.15.23l.83,2.67v6.27s.17,0,.17,0h.63s2.58,0,2.58,0c.23,0,.38-.04.49-.15.09-.09.15-.25.15-.47v-4.62c0-.36-.06-.76-.17-1.21s-.28-.99-.53-1.59l-1.52-4c-.08-.19-.17-.34-.32-.44-.15-.09-.34-.13-.57-.13h-4.72c-.23,0-.4.04-.55.13-.15.09-.27.25-.32.44l-1.53,4c-.23.61-.4,1.14-.51,1.59s-.17.85-.17,1.21Z"/>
      <path class="cls-1" d="m13.96,105.71v4.62c0,.23.06.38.15.47.09.11.27.15.49.15h2.63c.25,0,.68,0,.68,0h.19s0-6.27,0-6.27l.81-2.67c.06-.09.09-.17.15-.23.06-.04.11-.06.19-.06h.44c.06,0,.13.02.19.06.04.06.09.13.13.23l.83,2.67v6.27s.17,0,.17,0h.63s2.58,0,2.58,0c.23,0,.4-.04.49-.15.09-.09.15-.25.15-.47v-4.62c0-.36-.06-.76-.17-1.21s-.28-.99-.51-1.59l-1.53-4c-.08-.19-.17-.34-.32-.44-.15-.09-.34-.13-.57-.13h-4.72c-.23,0-.4.04-.55.13-.15.09-.27.25-.32.44l-1.53,4c-.23.61-.4,1.14-.51,1.59s-.17.85-.17,1.21Z"/>
      <path class="cls-1" d="m13.93,45.17v4.64c0,.34.06.74.17,1.21.11.45.28.99.51,1.59l1.53,3.98c.08.19.17.34.32.44.15.09.34.13.57.13h4.72c.23,0,.4-.04.55-.13.15-.09.27-.25.32-.44l1.53-3.98c.23-.61.4-1.14.51-1.59.11-.47.17-.87.17-1.21v-4.64c0-.21-.06-.38-.15-.47s-.27-.15-.47-.15h-2.65c-.25,0-.68,0-.68,0h-.17s0,6.27,0,6.27l-.83,2.67c-.04.11-.09.19-.15.23-.06.04-.11.08-.19.08h-.44c-.06,0-.13-.04-.19-.08-.04-.04-.09-.11-.13-.23l-.83-2.67v-6.27s-.17,0-.17,0h-.63s-2.58,0-2.58,0c-.23,0-.4.06-.49.15-.09.09-.15.27-.15.47Z"/>
      <path class="cls-1" d="m29.9,45.17v4.64c0,.34.06.74.17,1.21.11.45.28.99.51,1.59l1.53,3.98c.06.19.17.34.32.44.15.09.32.13.57.13h4.72c.23,0,.4-.04.55-.13.15-.09.25-.25.32-.44l1.53-3.98c.23-.61.4-1.14.51-1.59.11-.47.17-.87.17-1.21v-4.64c0-.21-.06-.38-.15-.47s-.27-.15-.49-.15h-2.63c-.25,0-.68,0-.68,0h-.19s0,6.27,0,6.27l-.81,2.67c-.06.11-.09.19-.15.23-.06.04-.11.08-.19.08h-.44c-.08,0-.13-.04-.19-.08-.04-.04-.09-.11-.13-.23l-.83-2.67v-6.27s-.17,0-.17,0h-.63s-2.58,0-2.58,0c-.23,0-.4.06-.49.15-.09.09-.15.27-.15.47Z"/>
      <path class="cls-1" d="m45.8,45.17v4.64c0,.34.06.74.17,1.21.11.45.28.99.51,1.59l1.53,3.98c.06.19.17.34.32.44.13.09.32.13.57.13h4.72c.21,0,.4-.04.55-.13.13-.09.25-.25.32-.44l1.52-3.98c.25-.61.42-1.14.53-1.59.11-.47.15-.87.15-1.21v-4.64c0-.21-.04-.38-.13-.47-.11-.09-.27-.15-.49-.15h-2.63c-.25,0-.7,0-.7,0h-.17s0,6.27,0,6.27l-.81,2.67c-.06.11-.09.19-.15.23-.06.04-.11.08-.19.08h-.44c-.08,0-.13-.04-.19-.08-.06-.04-.09-.11-.15-.23l-.81-2.67v-6.27s-.17,0-.17,0h-.64s-2.58,0-2.58,0c-.23,0-.38.06-.47.15-.09.09-.15.27-.15.47Z"/>
    </g>
  </g>
</svg>