<?xml version="1.0" encoding="UTF-8"?>

<svg id="_レイヤー_2" data-name="レイヤー 2" xmlns="http://www.w3.org/2000/svg" viewBox="0 0 566 155.52">
  <defs>
    <style >
      .cls-1 {
        fill: #fff;
      }
    </style>
  </defs>
  <g id="_レイヤー_1-2" data-name="レイヤー 1">
    <g>
      <g>
        <path class="cls-1" d="m108.1,44.38c2.14-1.8,5.46-2.69,9.93-2.69h43.41c2.75,0,4.72-.61,5.95-1.84,1.21-1.23,1.84-3.2,1.84-5.95V7.77c0-2.73-.63-4.72-1.84-5.93-1.23-1.23-3.2-1.84-5.95-1.84h-52.69c-18,0-31.36,3.64-40.07,10.89-8.72,7.28-13.07,18.4-13.07,33.39v67.17c0,14.99,4.36,26.07,13.07,33.27,8.72,7.2,22.07,10.8,40.07,10.8h52.69c2.75,0,4.72-.63,5.95-1.84,1.21-1.23,1.84-3.2,1.84-5.95v-25.69c0-2.75-.63-4.72-1.84-5.95-1.23-1.21-3.2-1.84-5.95-1.84h-43.41c-4.47,0-7.79-.81-9.93-2.48-2.18-1.65-3.26-4.28-3.26-7.88v-51.41c0-3.6,1.08-6.31,3.26-8.11Zm-38.96,52.03c0,1.06-.87,1.93-1.93,1.93s-1.93-.87-1.93-1.93v-37.31c0-1.06.87-1.93,1.93-1.93s1.93.87,1.93,1.93v37.31Zm12.24,0c0,1.06-.85,1.93-1.91,1.93s-1.93-.87-1.93-1.93v-37.31c0-1.06.85-1.93,1.93-1.93s1.91.87,1.91,1.93v37.31Zm-2.01-55.48c-2.2,0-3.96-1.78-3.96-3.96v-8.85c0-2.2,1.76-3.96,3.96-3.96h8.85c2.2,0,3.96,1.76,3.96,3.96v8.85c0,2.18-1.76,3.96-3.96,3.96h-8.85Zm14.48,55.48c0,1.06-.87,1.93-1.93,1.93s-1.93-.87-1.93-1.93v-37.31c0-1.06.87-1.93,1.93-1.93s1.93.87,1.93,1.93v37.31Z"/>
        <path class="cls-1" d="m51.99,55.98c-.42-.4-1.08-.61-2.01-.61h-19.29c-1.46,0-3.15.23-5.04.68-1.91.45-4.13,1.17-6.65,2.12l-16.6,6.25c-.83.3-1.44.76-1.82,1.35-.4.61-.59,1.35-.59,2.25v19.36c0,.99.19,1.74.59,2.35.38.61.99,1.04,1.82,1.33l16.6,6.27c2.52.97,4.74,1.67,6.65,2.12,1.89.45,3.58.68,5.04.68h19.29c.93,0,1.59-.21,2.01-.63.42-.4.63-1.04.63-1.97v-13.89h-26.17l-11.1-3.39c-.44-.17-.76-.4-.95-.61-.21-.23-.3-.47-.3-.76v-1.8c0-.28.09-.53.3-.76.19-.21.51-.42.95-.61l11.1-3.39h26.17v-14.4c0-.89-.21-1.57-.63-1.97Z"/>
        <path class="cls-1" d="m123.22,104.5c-.11-.45-.28-.99-.51-1.59l-1.52-4c-.08-.19-.19-.34-.34-.44-.13-.09-.32-.13-.55-.13h-4.72c-.23,0-.42.04-.57.13-.15.09-.25.25-.32.44l-1.52,4c-.25.61-.42,1.14-.53,1.59s-.15.85-.15,1.21v4.62c0,.23.04.38.13.47.11.11.27.15.49.15h3.37v-6.27l.83-2.67c.04-.09.09-.17.15-.23.06-.04.11-.06.19-.06h.44c.06,0,.11.02.17.06.06.06.11.13.15.23l.83,2.67v6.27h3.51c.21,0,.38-.04.47-.15.09-.09.15-.25.15-.47v-4.62c0-.36-.06-.76-.17-1.21Z"/>
        <path class="cls-1" d="m139.19,104.5c-.11-.45-.28-.99-.51-1.59l-1.53-4c-.06-.19-.17-.34-.32-.44-.15-.09-.32-.13-.55-.13h-4.72c-.23,0-.42.04-.57.13-.15.09-.25.25-.32.44l-1.52,4c-.25.61-.42,1.14-.53,1.59s-.17.85-.17,1.21v4.62c0,.23.06.38.15.47.11.11.27.15.49.15h3.37v-6.27l.83-2.67c.04-.09.09-.17.15-.23.04-.04.11-.06.17-.06h.45c.06,0,.11.02.17.06.06.06.11.13.15.23l.83,2.67v6.27h3.51c.21,0,.38-.04.47-.15.09-.09.15-.25.15-.47v-4.62c0-.36-.06-.76-.17-1.21Z"/>
        <path class="cls-1" d="m155.09,104.5c-.11-.45-.28-.99-.51-1.59l-1.53-4c-.06-.19-.17-.34-.32-.44-.15-.09-.32-.13-.55-.13h-4.72c-.23,0-.42.04-.57.13-.15.09-.25.25-.32.44l-1.53,4c-.23.61-.4,1.14-.51,1.59s-.17.85-.17,1.21v4.62c0,.23.06.38.15.47.09.11.27.15.49.15h3.37v-6.27l.83-2.67c.04-.09.09-.17.13-.23.06-.04.13-.06.19-.06h.44c.08,0,.13.02.19.06.06.06.09.13.15.23l.81,2.67v6.27h3.51c.23,0,.4-.04.49-.15.09-.09.15-.25.15-.47v-4.62c0-.36-.06-.76-.17-1.21Z"/>
        <path class="cls-1" d="m155.14,44.7c-.09-.09-.27-.15-.49-.15h-3.37v6.27l-.83,2.67c-.04.11-.09.19-.13.23-.06.04-.13.08-.19.08h-.44c-.08,0-.13-.04-.19-.08-.06-.04-.11-.11-.15-.23l-.83-2.67v-6.27h-3.51c-.21,0-.38.06-.47.15s-.15.27-.15.47v4.64c0,.34.06.74.17,1.21.11.45.28.99.51,1.59l1.53,3.98c.06.19.17.34.32.44.15.09.32.13.55.13h4.72c.23,0,.42-.04.57-.13.15-.09.25-.25.32-.44l1.53-3.98c.23-.61.4-1.14.51-1.59.11-.47.17-.87.17-1.21v-4.64c0-.21-.06-.38-.15-.47Z"/>
        <path class="cls-1" d="m139.17,44.7c-.09-.09-.27-.15-.49-.15h-3.37v6.27l-.83,2.67c-.04.11-.09.19-.13.23-.06.04-.11.08-.19.08h-.44c-.08,0-.13-.04-.19-.08-.06-.04-.09-.11-.15-.23l-.81-2.67v-6.27h-3.51c-.23,0-.4.06-.49.15s-.15.27-.15.47v4.64c0,.34.06.74.17,1.21.11.45.28.99.51,1.59l1.53,3.98c.08.19.17.34.32.44.15.09.32.13.55.13h4.72c.25,0,.42-.04.57-.13.15-.09.27-.25.32-.44l1.53-3.98c.23-.61.4-1.14.51-1.59.11-.47.17-.87.17-1.21v-4.64c0-.21-.06-.38-.15-.47Z"/>
        <path class="cls-1" d="m123.27,44.7c-.09-.09-.25-.15-.47-.15h-3.39v6.27l-.81,2.67c-.06.11-.09.19-.15.23-.06.04-.11.08-.19.08h-.44c-.08,0-.13-.04-.19-.08-.06-.04-.09-.11-.15-.23l-.81-2.67v-6.27h-3.51c-.23,0-.38.06-.49.15-.09.09-.13.27-.13.47v4.64c0,.34.04.74.15,1.21.11.45.28.99.53,1.59l1.52,3.98c.08.19.19.34.32.44.15.09.34.13.55.13h4.72c.25,0,.44-.04.57-.13.15-.09.27-.25.32-.44l1.53-3.98c.23-.61.4-1.14.51-1.59.11-.47.17-.87.17-1.21v-4.64c0-.21-.06-.38-.15-.47Z"/>
      </g>
      <g>
        <g>
          <path class="cls-1" d="m218.15,82.38c-.38-1.56-.97-3.38-1.77-5.46l-5.22-13.62c-.24-.68-.61-1.18-1.11-1.5-.5-.32-1.13-.48-1.89-.48h-16.14c-.8,0-1.45.16-1.95.48-.5.32-.87.82-1.11,1.5l-5.22,13.62c-.8,2.08-1.39,3.9-1.77,5.46-.38,1.56-.57,2.94-.57,4.14v15.84c0,.76.17,1.31.51,1.65s.89.51,1.65.51h11.58v-21.48l2.82-9.12c.16-.36.33-.62.51-.78.18-.16.39-.24.63-.24h1.5c.24,0,.45.08.63.24.18.16.35.42.51.78l2.82,9.12v21.48h12c.76,0,1.31-.17,1.65-.51.34-.34.51-.89.51-1.65v-15.84c0-1.2-.19-2.58-.57-4.14Z"/>
          <path class="cls-1" d="m256.67,61.83c-.34-.34-.89-.51-1.65-.51h-26.76c-.76,0-1.31.17-1.65.51-.34.34-.51.89-.51,1.65v38.88c0,.76.17,1.31.51,1.65.34.34.89.51,1.65.51h9.3c.76,0,1.31-.17,1.65-.51.34-.34.51-.89.51-1.65v-11.82h10.44c.76,0,1.31-.17,1.65-.51.34-.34.51-.89.51-1.65v-7.2c0-.76-.17-1.31-.51-1.65s-.89-.51-1.65-.51h-10.44v-6.24h15.3c.76,0,1.31-.17,1.65-.51s.51-.89.51-1.65v-7.14c0-.76-.17-1.31-.51-1.65Z"/>
          <path class="cls-1" d="m293.18,72.66c.76,0,1.31-.17,1.65-.51.34-.34.51-.89.51-1.65v-7.02c0-.76-.17-1.31-.51-1.65s-.89-.51-1.65-.51h-27.84c-.76,0-1.31.17-1.65.51s-.51.89-.51,1.65v38.88c0,.76.17,1.31.51,1.65.34.34.89.51,1.65.51h27.84c.76,0,1.31-.17,1.65-.51.34-.34.51-.89.51-1.65v-7.02c0-.76-.17-1.31-.51-1.65s-.89-.51-1.65-.51h-16.56v-5.16h11.7c.76,0,1.31-.17,1.65-.51.34-.34.51-.89.51-1.65v-6.42c0-.76-.17-1.31-.51-1.65-.34-.34-.89-.51-1.65-.51h-11.7v-4.62h16.56Z"/>
        </g>
        <g>
          <path class="cls-1" d="m218.15,132.02c-.38-1.57-.97-3.38-1.77-5.46l-5.22-13.62c-.24-.68-.61-1.18-1.11-1.5-.5-.32-1.13-.49-1.89-.49h-16.14c-.8,0-1.45.17-1.95.49-.5.32-.87.82-1.11,1.5l-5.22,13.62c-.8,2.08-1.39,3.89-1.77,5.46-.38,1.55-.57,2.93-.57,4.14v15.83c0,.77.17,1.32.51,1.66s.89.51,1.65.51h11.58v-21.49l2.82-9.11c.16-.36.33-.62.51-.78.18-.16.39-.25.63-.25h1.5c.24,0,.45.09.63.25.18.16.35.42.51.78l2.82,9.11v21.49h12c.76,0,1.31-.17,1.65-.51.34-.34.51-.89.51-1.66v-15.83c0-1.21-.19-2.59-.57-4.14Z"/>
          <path class="cls-1" d="m268.25,111.47c-.34-.34-.89-.52-1.65-.52h-9.72c-.64,0-1.17.15-1.59.43-.42.28-.81.74-1.17,1.38l-5.34,9.77c-.2.37-.37.63-.51.79-.14.16-.33.24-.57.24h-.54c-.24,0-.43-.08-.57-.24-.14-.16-.31-.42-.51-.79l-5.4-9.77c-.36-.64-.75-1.1-1.17-1.38-.42-.28-.95-.43-1.59-.43h-9.66c-.76,0-1.31.18-1.65.52-.34.34-.51.89-.51,1.65v38.87c0,.77.17,1.32.51,1.66.34.34.89.51,1.65.51h8.94c.76,0,1.31-.17,1.65-.51.34-.34.51-.89.51-1.66v-21.12l3.54,6.54c.36.69.79,1.17,1.29,1.48.5.3,1.13.44,1.89.44h2.4c.76,0,1.39-.14,1.89-.44.5-.31.93-.79,1.29-1.48l3.54-6.54v21.12c0,.77.17,1.32.51,1.66s.89.51,1.65.51h9.24c.76,0,1.31-.17,1.65-.51s.51-.89.51-1.66v-38.87c0-.76-.17-1.31-.51-1.65Z"/>
          <path class="cls-1" d="m308.72,114.2c-2-2.17-5.72-3.25-11.16-3.25h-18.36c-.76,0-1.31.18-1.65.52s-.51.89-.51,1.65v38.87c0,.77.17,1.32.51,1.66.34.34.89.51,1.65.51h9.3c.76,0,1.31-.17,1.65-.51.34-.34.51-.89.51-1.66v-9.96h6.9c5.44,0,9.16-1.08,11.16-3.24,2-2.15,3-4.97,3-8.46v-7.67c0-3.48-1-6.3-3-8.46Zm-9.96,14.09c0,.77-.18,1.45-.54,2.04-.36.61-1.12.91-2.28.91h-5.4v-9.06h5.4c1.16,0,1.92.3,2.28.89.36.61.54,1.29.54,2.05v3.17Z"/>
          <path class="cls-1" d="m353.81,132.02c-.38-1.57-.97-3.38-1.77-5.46l-5.22-13.62c-.24-.68-.61-1.18-1.11-1.5-.5-.32-1.13-.49-1.89-.49h-16.14c-.8,0-1.45.17-1.95.49-.5.32-.87.82-1.11,1.5l-5.22,13.62c-.8,2.08-1.39,3.89-1.77,5.46-.38,1.55-.57,2.93-.57,4.14v15.83c0,.77.17,1.32.51,1.66.34.34.89.51,1.65.51h11.58v-21.49l2.82-9.11c.16-.36.33-.62.51-.78.18-.16.39-.25.63-.25h1.5c.24,0,.45.09.63.25.18.16.35.42.51.78l2.82,9.11v21.49h12c.76,0,1.31-.17,1.65-.51s.51-.89.51-1.66v-15.83c0-1.21-.19-2.59-.57-4.14Z"/>
          <path class="cls-1" d="m398.15,111.47c-.34-.34-.89-.52-1.65-.52h-9c-.76,0-1.31.18-1.65.52-.34.34-.51.89-.51,1.65v12.78l-11.64-13.33c-.52-.59-1.05-1.01-1.59-1.25-.54-.25-1.19-.37-1.95-.37h-6.24c-.76,0-1.31.18-1.65.52-.34.34-.51.89-.51,1.65v38.87c0,.77.17,1.32.51,1.66s.89.51,1.65.51h9c.76,0,1.31-.17,1.65-.51s.51-.89.51-1.66v-19.79l10.26,12.42v7.37c0,.77.17,1.32.51,1.66s.89.51,1.65.51h9c.76,0,1.31-.17,1.65-.51.34-.34.51-.89.51-1.66v-38.87c0-.76-.17-1.31-.51-1.65Z"/>
          <path class="cls-1" d="m436.94,122.3c.76,0,1.31-.17,1.65-.52.34-.33.51-.88.51-1.64v-7.02c0-.76-.17-1.31-.51-1.65s-.89-.52-1.65-.52h-27.84c-.76,0-1.31.18-1.65.52s-.51.89-.51,1.65v38.87c0,.77.17,1.32.51,1.66.34.34.89.51,1.65.51h27.84c.76,0,1.31-.17,1.65-.51.34-.34.51-.89.51-1.66v-7.01c0-.76-.17-1.31-.51-1.66-.34-.33-.89-.5-1.65-.5h-16.56v-5.16h11.7c.76,0,1.31-.17,1.65-.51.34-.34.51-.89.51-1.66v-6.42c0-.75-.17-1.3-.51-1.65-.34-.33-.89-.51-1.65-.51h-11.7v-4.61h16.56Z"/>
          <path class="cls-1" d="m480.53,131.45c-.34-.34-.89-.51-1.65-.51h-8.7c-.76,0-1.31.17-1.65.51-.34.33-.51.89-.51,1.65v9.72h-8.22v-29.7c0-.76-.17-1.31-.51-1.65s-.89-.52-1.65-.52h-9.3c-.76,0-1.31.18-1.65.52s-.51.89-.51,1.65v38.87c0,.77.17,1.32.51,1.66.34.34.89.51,1.65.51h30.54c.76,0,1.31-.17,1.65-.51.34-.34.51-.89.51-1.66v-18.89c0-.76-.17-1.32-.51-1.65Z"/>
          <path class="cls-1" d="m522.23,131.45c-.34-.34-.89-.51-1.65-.51h-8.7c-.76,0-1.31.17-1.65.51-.34.33-.51.89-.51,1.65v9.72h-8.22v-29.7c0-.76-.17-1.31-.51-1.65-.34-.34-.89-.52-1.65-.52h-9.3c-.76,0-1.31.18-1.65.52-.34.34-.51.89-.51,1.65v38.87c0,.77.17,1.32.51,1.66s.89.51,1.65.51h30.54c.76,0,1.31-.17,1.65-.51.34-.34.51-.89.51-1.66v-18.89c0-.76-.17-1.32-.51-1.65Z"/>
          <path class="cls-1" d="m565.43,132.02c-.38-1.57-.97-3.38-1.77-5.46l-5.22-13.62c-.24-.68-.61-1.18-1.11-1.5-.5-.32-1.13-.49-1.89-.49h-16.14c-.8,0-1.45.17-1.95.49-.5.32-.87.82-1.11,1.5l-5.22,13.62c-.8,2.08-1.39,3.89-1.77,5.46-.38,1.55-.57,2.93-.57,4.14v15.83c0,.77.17,1.32.51,1.66.34.34.89.51,1.65.51h11.58v-21.49l2.82-9.11c.16-.36.33-.62.51-.78.18-.16.39-.25.63-.25h1.5c.24,0,.45.09.63.25.18.16.35.42.51.78l2.82,9.11v21.49h12c.76,0,1.31-.17,1.65-.51s.51-.89.51-1.66v-15.83c0-1.21-.19-2.59-.57-4.14Z"/>
        </g>
      </g>
    </g>
  </g>
</svg>