<?xml version="1.0" encoding="utf-8"?>
<!-- Generator: Adobe Illustrator 27.2.0, SVG Export Plug-In . SVG Version: 6.00 Build 0)  -->
<svg version="1.1" id="レイヤー_1" xmlns="http://www.w3.org/2000/svg" xmlns:xlink="http://www.w3.org/1999/xlink" x="0px"
	 y="0px" viewBox="0 0 595.3 841.9" style="enable-background:new 0 0 595.3 841.9;" xml:space="preserve">
<style type="text/css">
	.st0{fill:#FFFFFF;}
</style>
<g>
	<g>
		<path class="st0" d="M122.6,387.6c2.1-1.8,5.5-2.7,9.9-2.7h43.4c2.7,0,4.7-0.6,5.9-1.8c1.2-1.2,1.8-3.2,1.8-5.9V351
			c0-2.7-0.6-4.7-1.8-5.9c-1.2-1.2-3.2-1.8-5.9-1.8h-52.7c-18,0-31.4,3.6-40.1,10.9c-8.7,7.3-13.1,18.4-13.1,33.4v67.2
			c0,15,4.4,26.1,13.1,33.3c8.7,7.2,22.1,10.8,40.1,10.8h52.7c2.7,0,4.7-0.6,5.9-1.8c1.2-1.2,1.8-3.2,1.8-5.9v-25.7
			c0-2.7-0.6-4.7-1.8-5.9c-1.2-1.2-3.2-1.8-5.9-1.8h-43.4c-4.5,0-7.8-0.8-9.9-2.5c-2.2-1.6-3.3-4.3-3.3-7.9v-51.4
			C119.3,392.1,120.4,389.4,122.6,387.6z M83.6,439.6c0,1.1-0.9,1.9-1.9,1.9s-1.9-0.9-1.9-1.9v-37.3c0-1.1,0.9-1.9,1.9-1.9
			s1.9,0.9,1.9,1.9V439.6z M95.9,439.6c0,1.1-0.9,1.9-1.9,1.9c-1.1,0-1.9-0.9-1.9-1.9v-37.3c0-1.1,0.9-1.9,1.9-1.9
			c1.1,0,1.9,0.9,1.9,1.9V439.6z M93.9,384.2c-2.2,0-4-1.8-4-4v-8.8c0-2.2,1.8-4,4-4h8.8c2.2,0,4,1.8,4,4v8.8c0,2.2-1.8,4-4,4H93.9z
			 M108.3,439.6c0,1.1-0.9,1.9-1.9,1.9c-1.1,0-1.9-0.9-1.9-1.9v-37.3c0-1.1,0.9-1.9,1.9-1.9c1.1,0,1.9,0.9,1.9,1.9V439.6z"/>
		<path class="st0" d="M66.5,399.2c-0.4-0.4-1.1-0.6-2-0.6H45.2c-1.5,0-3.1,0.2-5,0.7c-1.9,0.5-4.1,1.2-6.7,2.1l-16.6,6.3
			c-0.8,0.3-1.4,0.8-1.8,1.3c-0.4,0.6-0.6,1.3-0.6,2.3v19.4c0,1,0.2,1.7,0.6,2.3c0.4,0.6,1,1,1.8,1.3l16.6,6.3
			c2.5,1,4.7,1.7,6.7,2.1c1.9,0.5,3.6,0.7,5,0.7h19.3c0.9,0,1.6-0.2,2-0.6c0.4-0.4,0.6-1,0.6-2v-10.6c0-0.9,0-2.6,0-2.6v-0.7H40.9
			l-11.1-3.4c-0.4-0.2-0.8-0.4-0.9-0.6c-0.2-0.2-0.3-0.5-0.3-0.8v-1.8c0-0.3,0.1-0.5,0.3-0.8c0.2-0.2,0.5-0.4,0.9-0.6l11.1-3.4h26.2
			v-0.7c0,0,0-1.8,0-2.8v-10.9C67.1,400.3,66.9,399.6,66.5,399.2z"/>
		<path class="st0" d="M137.7,447.7c-0.1-0.5-0.3-1-0.5-1.6l-1.5-4c-0.1-0.2-0.2-0.3-0.3-0.4c-0.1-0.1-0.3-0.1-0.5-0.1h-4.7
			c-0.2,0-0.4,0-0.6,0.1c-0.2,0.1-0.2,0.2-0.3,0.4l-1.5,4c-0.2,0.6-0.4,1.1-0.5,1.6c-0.1,0.5-0.2,0.9-0.2,1.2v4.6
			c0,0.2,0,0.4,0.1,0.5c0.1,0.1,0.3,0.2,0.5,0.2h2.6c0.2,0,0.6,0,0.6,0h0.2v-6.3l0.8-2.7c0-0.1,0.1-0.2,0.2-0.2
			c0.1,0,0.1-0.1,0.2-0.1h0.4c0.1,0,0.1,0,0.2,0.1c0.1,0.1,0.1,0.1,0.2,0.2l0.8,2.7v6.3h0.2c0,0,0.5,0,0.7,0h2.7
			c0.2,0,0.4,0,0.5-0.2c0.1-0.1,0.2-0.2,0.2-0.5v-4.6C137.9,448.6,137.8,448.2,137.7,447.7z"/>
		<path class="st0" d="M153.7,447.7c-0.1-0.5-0.3-1-0.5-1.6l-1.5-4c-0.1-0.2-0.2-0.3-0.3-0.4c-0.2-0.1-0.3-0.1-0.5-0.1H146
			c-0.2,0-0.4,0-0.6,0.1c-0.2,0.1-0.2,0.2-0.3,0.4l-1.5,4c-0.2,0.6-0.4,1.1-0.5,1.6c-0.1,0.5-0.2,0.9-0.2,1.2v4.6
			c0,0.2,0.1,0.4,0.2,0.5c0.1,0.1,0.3,0.2,0.5,0.2h2.6c0.2,0,0.6,0,0.6,0h0.2v-6.3l0.8-2.7c0-0.1,0.1-0.2,0.2-0.2
			c0,0,0.1-0.1,0.2-0.1h0.5c0.1,0,0.1,0,0.2,0.1c0.1,0.1,0.1,0.1,0.2,0.2l0.8,2.7v6.3h0.2c0,0,0.4,0,0.7,0h2.7c0.2,0,0.4,0,0.5-0.2
			c0.1-0.1,0.2-0.2,0.2-0.5v-4.6C153.8,448.6,153.8,448.2,153.7,447.7z"/>
		<path class="st0" d="M169.6,447.7c-0.1-0.5-0.3-1-0.5-1.6l-1.5-4c-0.1-0.2-0.2-0.3-0.3-0.4c-0.2-0.1-0.3-0.1-0.5-0.1h-4.7
			c-0.2,0-0.4,0-0.6,0.1c-0.2,0.1-0.2,0.2-0.3,0.4l-1.5,4c-0.2,0.6-0.4,1.1-0.5,1.6c-0.1,0.5-0.2,0.9-0.2,1.2v4.6
			c0,0.2,0.1,0.4,0.2,0.5c0.1,0.1,0.3,0.2,0.5,0.2h2.6c0.2,0,0.6,0,0.6,0h0.2v-6.3l0.8-2.7c0-0.1,0.1-0.2,0.1-0.2
			c0.1,0,0.1-0.1,0.2-0.1h0.4c0.1,0,0.1,0,0.2,0.1c0.1,0.1,0.1,0.1,0.2,0.2l0.8,2.7v6.3h0.2c0,0,0.4,0,0.7,0h2.6
			c0.2,0,0.4,0,0.5-0.2c0.1-0.1,0.2-0.2,0.2-0.5v-4.6C169.7,448.6,169.7,448.2,169.6,447.7z"/>
		<path class="st0" d="M169.6,387.9c-0.1-0.1-0.3-0.2-0.5-0.2h-2.6c-0.2,0-0.6,0-0.6,0h-0.2v6.3l-0.8,2.7c0,0.1-0.1,0.2-0.1,0.2
			c-0.1,0-0.1,0.1-0.2,0.1h-0.4c-0.1,0-0.1,0-0.2-0.1c-0.1,0-0.1-0.1-0.2-0.2L163,394v-6.3h-0.2c0,0-0.4,0-0.7,0h-2.7
			c-0.2,0-0.4,0.1-0.5,0.2c-0.1,0.1-0.2,0.3-0.2,0.5v4.6c0,0.3,0.1,0.7,0.2,1.2c0.1,0.5,0.3,1,0.5,1.6l1.5,4
			c0.1,0.2,0.2,0.3,0.3,0.4c0.2,0.1,0.3,0.1,0.5,0.1h4.7c0.2,0,0.4,0,0.6-0.1c0.2-0.1,0.2-0.2,0.3-0.4l1.5-4
			c0.2-0.6,0.4-1.1,0.5-1.6c0.1-0.5,0.2-0.9,0.2-1.2v-4.6C169.8,388.2,169.7,388,169.6,387.9z"/>
		<path class="st0" d="M153.7,387.9c-0.1-0.1-0.3-0.2-0.5-0.2h-2.6c-0.2,0-0.6,0-0.6,0h-0.2v6.3l-0.8,2.7c0,0.1-0.1,0.2-0.1,0.2
			c-0.1,0-0.1,0.1-0.2,0.1h-0.4c-0.1,0-0.1,0-0.2-0.1c-0.1,0-0.1-0.1-0.2-0.2L147,394v-6.3h-0.2c0,0-0.4,0-0.7,0h-2.6
			c-0.2,0-0.4,0.1-0.5,0.2c-0.1,0.1-0.2,0.3-0.2,0.5v4.6c0,0.3,0.1,0.7,0.2,1.2c0.1,0.5,0.3,1,0.5,1.6l1.5,4
			c0.1,0.2,0.2,0.3,0.3,0.4c0.2,0.1,0.3,0.1,0.5,0.1h4.7c0.2,0,0.4,0,0.6-0.1c0.2-0.1,0.3-0.2,0.3-0.4l1.5-4
			c0.2-0.6,0.4-1.1,0.5-1.6c0.1-0.5,0.2-0.9,0.2-1.2v-4.6C153.8,388.2,153.7,388,153.7,387.9z"/>
		<path class="st0" d="M137.8,387.9c-0.1-0.1-0.2-0.2-0.5-0.2h-2.6c-0.2,0-0.6,0-0.6,0h-0.2v6.3l-0.8,2.7c-0.1,0.1-0.1,0.2-0.2,0.2
			c-0.1,0-0.1,0.1-0.2,0.1h-0.4c-0.1,0-0.1,0-0.2-0.1c-0.1,0-0.1-0.1-0.2-0.2l-0.8-2.7v-6.3H131c0,0-0.5,0-0.7,0h-2.6
			c-0.2,0-0.4,0.1-0.5,0.2c-0.1,0.1-0.1,0.3-0.1,0.5v4.6c0,0.3,0,0.7,0.2,1.2c0.1,0.5,0.3,1,0.5,1.6l1.5,4c0.1,0.2,0.2,0.3,0.3,0.4
			c0.2,0.1,0.3,0.1,0.5,0.1h4.7c0.2,0,0.4,0,0.6-0.1c0.2-0.1,0.3-0.2,0.3-0.4l1.5-4c0.2-0.6,0.4-1.1,0.5-1.6
			c0.1-0.5,0.2-0.9,0.2-1.2v-4.6C137.9,388.2,137.9,388,137.8,387.9z"/>
	</g>
	<g>
		<g>
			<path class="st0" d="M232.6,425.6c-0.4-1.6-1-3.4-1.8-5.5l-5.2-13.6c-0.2-0.7-0.6-1.2-1.1-1.5c-0.5-0.3-1.1-0.5-1.9-0.5h-16.1
				c-0.8,0-1.4,0.2-1.9,0.5c-0.5,0.3-0.9,0.8-1.1,1.5l-5.2,13.6c-0.8,2.1-1.4,3.9-1.8,5.5s-0.6,2.9-0.6,4.1v15.8
				c0,0.8,0.2,1.3,0.5,1.6c0.3,0.3,0.9,0.5,1.7,0.5h8.8c0.8,0,2.2,0,2.2,0h0.6v-21.5l2.8-9.1c0.2-0.4,0.3-0.6,0.5-0.8
				c0.2-0.2,0.4-0.2,0.6-0.2h1.5c0.2,0,0.5,0.1,0.6,0.2c0.2,0.2,0.3,0.4,0.5,0.8l2.8,9.1v21.5h0.6c0,0,1.5,0,2.3,0h9.1
				c0.8,0,1.3-0.2,1.6-0.5c0.3-0.3,0.5-0.9,0.5-1.6v-15.8C233.2,428.5,233,427.2,232.6,425.6z"/>
			<path class="st0" d="M271.2,405.1c-0.3-0.3-0.9-0.5-1.7-0.5h-26.8c-0.8,0-1.3,0.2-1.7,0.5c-0.3,0.3-0.5,0.9-0.5,1.7v38.9
				c0,0.8,0.2,1.3,0.5,1.6c0.3,0.3,0.9,0.5,1.7,0.5h9.3c0.8,0,1.3-0.2,1.6-0.5c0.3-0.3,0.5-0.9,0.5-1.6v-11.8h10.4
				c0.8,0,1.3-0.2,1.7-0.5c0.3-0.3,0.5-0.9,0.5-1.7v-7.2c0-0.8-0.2-1.3-0.5-1.6c-0.3-0.3-0.9-0.5-1.7-0.5h-10.4V416h15.3
				c0.8,0,1.3-0.2,1.7-0.5s0.5-0.9,0.5-1.7v-7.1C271.7,405.9,271.5,405.4,271.2,405.1z"/>
			<path class="st0" d="M307.7,415.9c0.8,0,1.3-0.2,1.6-0.5c0.3-0.3,0.5-0.9,0.5-1.7v-7c0-0.8-0.2-1.3-0.5-1.7
				c-0.3-0.3-0.9-0.5-1.6-0.5h-27.8c-0.8,0-1.3,0.2-1.6,0.5c-0.3,0.3-0.5,0.9-0.5,1.7v38.9c0,0.8,0.2,1.3,0.5,1.6
				c0.3,0.3,0.9,0.5,1.6,0.5h27.8c0.8,0,1.3-0.2,1.6-0.5c0.3-0.3,0.5-0.9,0.5-1.6v-7c0-0.8-0.2-1.3-0.5-1.7
				c-0.3-0.3-0.9-0.5-1.6-0.5h-16.6v-5.2h11.7c0.8,0,1.3-0.2,1.6-0.5c0.3-0.3,0.5-0.9,0.5-1.6v-6.4c0-0.8-0.2-1.3-0.5-1.6
				c-0.3-0.3-0.9-0.5-1.6-0.5h-11.7v-4.6H307.7z"/>
		</g>
		<g>
			<path class="st0" d="M232.6,475.2c-0.4-1.6-1-3.4-1.8-5.5l-5.2-13.6c-0.2-0.7-0.6-1.2-1.1-1.5c-0.5-0.3-1.1-0.5-1.9-0.5h-16.1
				c-0.8,0-1.4,0.2-1.9,0.5c-0.5,0.3-0.9,0.8-1.1,1.5l-5.2,13.6c-0.8,2.1-1.4,3.9-1.8,5.5c-0.4,1.5-0.6,2.9-0.6,4.1v15.8
				c0,0.8,0.2,1.3,0.5,1.7c0.3,0.3,0.9,0.5,1.7,0.5h8.8c0.8,0,2.2,0,2.2,0h0.6v-21.5l2.8-9.1c0.2-0.4,0.3-0.6,0.5-0.8
				c0.2-0.2,0.4-0.2,0.6-0.2h1.5c0.2,0,0.5,0.1,0.6,0.2c0.2,0.2,0.3,0.4,0.5,0.8l2.8,9.1v21.5h0.6c0,0,1.5,0,2.3,0h9.1
				c0.8,0,1.3-0.2,1.6-0.5c0.3-0.3,0.5-0.9,0.5-1.7v-15.8C233.2,478.2,233,476.8,232.6,475.2z"/>
			<path class="st0" d="M282.7,454.7c-0.3-0.3-0.9-0.5-1.7-0.5h-9.7c-0.6,0-1.2,0.2-1.6,0.4c-0.4,0.3-0.8,0.7-1.2,1.4l-5.3,9.8
				c-0.2,0.4-0.4,0.6-0.5,0.8c-0.1,0.2-0.3,0.2-0.6,0.2h-0.5c-0.2,0-0.4-0.1-0.6-0.2c-0.1-0.2-0.3-0.4-0.5-0.8l-5.4-9.8
				c-0.4-0.6-0.8-1.1-1.2-1.4c-0.4-0.3-1-0.4-1.6-0.4h-9.7c-0.8,0-1.3,0.2-1.7,0.5c-0.3,0.3-0.5,0.9-0.5,1.7v38.9
				c0,0.8,0.2,1.3,0.5,1.7c0.3,0.3,0.9,0.5,1.7,0.5h8.9c0.8,0,1.3-0.2,1.6-0.5c0.3-0.3,0.5-0.9,0.5-1.7v-21.1l3.5,6.5
				c0.4,0.7,0.8,1.2,1.3,1.5c0.5,0.3,1.1,0.4,1.9,0.4h2.4c0.8,0,1.4-0.1,1.9-0.4c0.5-0.3,0.9-0.8,1.3-1.5l3.5-6.5v21.1
				c0,0.8,0.2,1.3,0.5,1.7c0.3,0.3,0.9,0.5,1.7,0.5h9.2c0.8,0,1.3-0.2,1.7-0.5c0.3-0.3,0.5-0.9,0.5-1.7v-38.9
				C283.2,455.6,283.1,455,282.7,454.7z"/>
			<path class="st0" d="M323.2,457.4c-2-2.2-5.7-3.2-11.2-3.2h-18.4c-0.8,0-1.3,0.2-1.7,0.5c-0.3,0.3-0.5,0.9-0.5,1.7v38.9
				c0,0.8,0.2,1.3,0.5,1.7c0.3,0.3,0.9,0.5,1.7,0.5h9.3c0.8,0,1.3-0.2,1.6-0.5c0.3-0.3,0.5-0.9,0.5-1.7v-10h6.9
				c5.4,0,9.2-1.1,11.2-3.2c2-2.2,3-5,3-8.5v-7.7C326.2,462.4,325.2,459.6,323.2,457.4z M313.2,471.5c0,0.8-0.2,1.5-0.5,2
				c-0.4,0.6-1.1,0.9-2.3,0.9H305v-9.1h5.4c1.2,0,1.9,0.3,2.3,0.9c0.4,0.6,0.5,1.3,0.5,2.1V471.5z"/>
			<path class="st0" d="M368.3,475.2c-0.4-1.6-1-3.4-1.8-5.5l-5.2-13.6c-0.2-0.7-0.6-1.2-1.1-1.5c-0.5-0.3-1.1-0.5-1.9-0.5h-16.1
				c-0.8,0-1.5,0.2-2,0.5c-0.5,0.3-0.9,0.8-1.1,1.5l-5.2,13.6c-0.8,2.1-1.4,3.9-1.8,5.5c-0.4,1.5-0.6,2.9-0.6,4.1v15.8
				c0,0.8,0.2,1.3,0.5,1.7c0.3,0.3,0.9,0.5,1.6,0.5h8.8c0.8,0,2.2,0,2.2,0h0.6v-21.5l2.8-9.1c0.2-0.4,0.3-0.6,0.5-0.8
				c0.2-0.2,0.4-0.2,0.6-0.2h1.5c0.2,0,0.4,0.1,0.6,0.2c0.2,0.2,0.4,0.4,0.5,0.8l2.8,9.1v21.5h0.6c0,0,1.5,0,2.3,0h9.1
				c0.8,0,1.3-0.2,1.7-0.5c0.3-0.3,0.5-0.9,0.5-1.7v-15.8C368.9,478.2,368.7,476.8,368.3,475.2z"/>
			<path class="st0" d="M412.6,454.7c-0.3-0.3-0.9-0.5-1.6-0.5h-9c-0.8,0-1.3,0.2-1.7,0.5c-0.3,0.3-0.5,0.9-0.5,1.7v12.8l-11.6-13.3
				c-0.5-0.6-1.1-1-1.6-1.2c-0.5-0.2-1.2-0.4-2-0.4h-6.2c-0.8,0-1.3,0.2-1.7,0.5c-0.3,0.3-0.5,0.9-0.5,1.7v38.9
				c0,0.8,0.2,1.3,0.5,1.7c0.3,0.3,0.9,0.5,1.7,0.5h9c0.8,0,1.3-0.2,1.7-0.5c0.3-0.3,0.5-0.9,0.5-1.7v-19.8l10.3,12.4v7.4
				c0,0.8,0.2,1.3,0.5,1.7c0.3,0.3,0.9,0.5,1.7,0.5h9c0.8,0,1.3-0.2,1.6-0.5c0.3-0.3,0.5-0.9,0.5-1.7v-38.9
				C413.1,455.6,413,455,412.6,454.7z"/>
			<path class="st0" d="M451.4,465.5c0.8,0,1.3-0.2,1.6-0.5c0.3-0.3,0.5-0.9,0.5-1.6v-7c0-0.8-0.2-1.3-0.5-1.7
				c-0.3-0.3-0.9-0.5-1.6-0.5h-27.8c-0.8,0-1.3,0.2-1.6,0.5c-0.3,0.3-0.5,0.9-0.5,1.7v38.9c0,0.8,0.2,1.3,0.5,1.7
				c0.3,0.3,0.9,0.5,1.6,0.5h27.8c0.8,0,1.3-0.2,1.6-0.5c0.3-0.3,0.5-0.9,0.5-1.7v-7c0-0.8-0.2-1.3-0.5-1.7
				c-0.3-0.3-0.9-0.5-1.6-0.5h-16.6v-5.2h11.7c0.8,0,1.3-0.2,1.7-0.5c0.3-0.3,0.5-0.9,0.5-1.7v-6.4c0-0.8-0.2-1.3-0.5-1.6
				c-0.3-0.3-0.9-0.5-1.7-0.5h-11.7v-4.6H451.4z"/>
			<path class="st0" d="M495,474.7c-0.3-0.3-0.9-0.5-1.6-0.5h-8.7c-0.8,0-1.3,0.2-1.7,0.5c-0.3,0.3-0.5,0.9-0.5,1.7v9.7h-8.2v-29.7
				c0-0.8-0.2-1.3-0.5-1.7c-0.3-0.3-0.9-0.5-1.7-0.5h-9.3c-0.8,0-1.3,0.2-1.6,0.5c-0.3,0.3-0.5,0.9-0.5,1.7v38.9
				c0,0.8,0.2,1.3,0.5,1.7c0.3,0.3,0.9,0.5,1.6,0.5h30.5c0.8,0,1.3-0.2,1.6-0.5c0.3-0.3,0.5-0.9,0.5-1.7v-18.9
				C495.5,475.6,495.4,475,495,474.7z"/>
			<path class="st0" d="M536.7,474.7c-0.3-0.3-0.9-0.5-1.7-0.5h-8.7c-0.8,0-1.3,0.2-1.7,0.5c-0.3,0.3-0.5,0.9-0.5,1.7v9.7H516v-29.7
				c0-0.8-0.2-1.3-0.5-1.7c-0.3-0.3-0.9-0.5-1.7-0.5h-9.3c-0.8,0-1.3,0.2-1.7,0.5c-0.3,0.3-0.5,0.9-0.5,1.7v38.9
				c0,0.8,0.2,1.3,0.5,1.7c0.3,0.3,0.9,0.5,1.7,0.5h30.5c0.8,0,1.3-0.2,1.7-0.5c0.3-0.3,0.5-0.9,0.5-1.7v-18.9
				C537.2,475.6,537.1,475,536.7,474.7z"/>
			<path class="st0" d="M579.9,475.2c-0.4-1.6-1-3.4-1.8-5.5l-5.2-13.6c-0.2-0.7-0.6-1.2-1.1-1.5c-0.5-0.3-1.1-0.5-1.9-0.5h-16.1
				c-0.8,0-1.5,0.2-2,0.5c-0.5,0.3-0.9,0.8-1.1,1.5l-5.2,13.6c-0.8,2.1-1.4,3.9-1.8,5.5c-0.4,1.5-0.6,2.9-0.6,4.1v15.8
				c0,0.8,0.2,1.3,0.5,1.7c0.3,0.3,0.9,0.5,1.6,0.5h8.8c0.8,0,2.2,0,2.2,0h0.6v-21.5l2.8-9.1c0.2-0.4,0.3-0.6,0.5-0.8
				c0.2-0.2,0.4-0.2,0.6-0.2h1.5c0.2,0,0.4,0.1,0.6,0.2c0.2,0.2,0.3,0.4,0.5,0.8l2.8,9.1v21.5h0.6c0,0,1.5,0,2.3,0h9.1
				c0.8,0,1.3-0.2,1.7-0.5c0.3-0.3,0.5-0.9,0.5-1.7v-15.8C580.5,478.2,580.3,476.8,579.9,475.2z"/>
		</g>
	</g>
</g>
</svg>
