<?xml version="1.0" encoding="UTF-8"?>
<svg id="_レイヤー_2" data-name="レイヤー 2" xmlns="http://www.w3.org/2000/svg" viewBox="0 0 170.16 119.69">
  <defs>
    <style>
      .cls-1 {
        fill: none;
        stroke: #eba922;
        stroke-miterlimit: 10;
      }
    </style>
  </defs>
  <g id="_レイヤー_1-2" data-name="レイヤー 1">
    <g>
      <path class="cls-1" d="m50.48,37.45h-19.29c-1.46,0-3.15.23-5.04.68-1.91.45-4.13,1.17-6.65,2.12l-16.6,6.25c-.83.3-1.44.76-1.82,1.35-.4.61-.59,1.35-.59,2.25v19.36c0,.99.19,1.74.59,2.35.38.61.99,1.04,1.82,1.33l16.6,6.27c2.52.97,4.74,1.67,6.65,2.12,1.9.45,3.58.68,5.04.68h19.29c.93,0,1.59-.21,2.01-.63.42-.4.63-1.04.63-1.97v-13.89h-26.17l-11.1-3.39c-.44-.17-.76-.4-.95-.61-.21-.23-.3-.47-.3-.76v-1.8c0-.28.09-.53.3-.76.19-.21.51-.42.95-.61l11.1-3.39h26.17v-14.4c0-.89-.21-1.57-.63-1.97-.42-.4-1.08-.61-2.01-.61Z"/>
      <path class="cls-1" d="m155.73,45.67c0-.21-.06-.38-.15-.47s-.27-.15-.49-.15h-3.37v6.27l-.83,2.67c-.04.11-.09.19-.13.23-.06.04-.13.08-.19.08h-.44c-.08,0-.13-.04-.19-.08-.06-.04-.11-.11-.15-.23l-.83-2.67v-6.27h-3.51c-.21,0-.38.06-.47.15s-.15.27-.15.47v4.64c0,.34.06.74.17,1.21.11.45.28.99.51,1.59l1.53,3.98c.06.19.17.34.32.44.15.09.32.13.55.13h4.72c.23,0,.42-.04.57-.13.15-.09.25-.25.32-.44l1.53-3.98c.23-.61.4-1.14.51-1.59.11-.47.17-.87.17-1.21v-4.64Z"/>
      <path class="cls-1" d="m139.76,45.67c0-.21-.06-.38-.15-.47-.09-.09-.27-.15-.49-.15h-3.37v6.27l-.83,2.67c-.04.11-.09.19-.13.23-.06.04-.11.08-.19.08h-.44c-.08,0-.13-.04-.19-.08-.06-.04-.09-.11-.15-.23l-.81-2.67v-6.27h-3.51c-.23,0-.4.06-.49.15s-.15.27-.15.47v4.64c0,.34.06.74.17,1.21.11.45.28.99.51,1.59l1.53,3.98c.08.19.17.34.32.44.15.09.32.13.55.13h4.72c.25,0,.42-.04.57-.13.15-.09.27-.25.32-.44l1.53-3.98c.23-.61.4-1.14.51-1.59.11-.47.17-.87.17-1.21v-4.64Z"/>
      <path class="cls-1" d="m123.86,45.67c0-.21-.06-.38-.15-.47s-.25-.15-.47-.15h-3.39v6.27l-.81,2.67c-.06.11-.09.19-.15.23-.06.04-.11.08-.19.08h-.44c-.08,0-.13-.04-.19-.08-.06-.04-.09-.11-.15-.23l-.81-2.67v-6.27h-3.51c-.23,0-.38.06-.49.15-.09.09-.13.27-.13.47v4.64c0,.34.04.74.15,1.21.11.45.28.99.53,1.59l1.52,3.98c.08.19.19.34.32.44.15.09.34.13.55.13h4.72c.25,0,.44-.04.57-.13.15-.09.27-.25.32-.44l1.53-3.98c.23-.61.4-1.14.51-1.59.11-.47.17-.87.17-1.21v-4.64Z"/>
      <path class="cls-1" d="m108.53,44.87c2.14-1.8,5.46-2.69,9.93-2.69h43.41c2.75,0,4.72-.6,5.95-1.84,1.21-1.23,1.84-3.2,1.84-5.95V8.27c0-2.73-.63-4.72-1.84-5.94-1.23-1.23-3.2-1.83-5.95-1.83h-52.69c-18,0-31.36,3.63-40.08,10.89-8.05,6.72-12.37,16.73-12.99,30.03h-.17v33.7c0,14.99,4.36,26.07,13.08,33.27,8.71,7.2,22.07,10.8,40.07,10.8h52.7c2.74,0,4.71-.62,5.95-1.83,1.21-1.23,1.83-3.21,1.83-5.95v-25.7c0-2.74-.62-4.71-1.83-5.95-1.24-1.21-3.21-1.83-5.95-1.83h-43.41c-4.47,0-7.79-.82-9.93-2.49-1.85-1.39-2.89-3.5-3.18-6.3v-16.16c0-3.6,1.08-6.31,3.26-8.11Zm-39.05,25.29c0,.59-.87,1.07-1.93,1.07s-1.94-.48-1.94-1.07v-20.63c0-.59.88-1.07,1.94-1.07s1.93.48,1.93,1.07v20.63Zm12.24,0c0,.59-.85,1.07-1.91,1.07s-1.94-.48-1.94-1.07v-20.63c0-.59.86-1.07,1.94-1.07s1.91.48,1.91,1.07v20.63Zm-1.91-28.74c-2.2,0-3.96-1.78-3.96-3.96v-8.84c0-2.2,1.76-3.96,3.96-3.96h8.85c2.2,0,3.96,1.76,3.96,3.96v8.84c0,2.18-1.76,3.96-3.96,3.96h-8.85Zm14.38,28.74c0,.59-.87,1.07-1.93,1.07s-1.94-.48-1.94-1.07v-20.63c0-.59.87-1.07,1.94-1.07s1.93.48,1.93,1.07v20.63Z"/>
      <path class="cls-1" d="m119.78,74.63h3.33c.21,0,.38-.04.47-.15.09-.09.15-.25.15-.47v-4.62c0-.36-.06-.76-.17-1.21-.11-.45-.28-.99-.51-1.59l-1.52-4c-.08-.19-.19-.34-.34-.44-.13-.09-.32-.13-.55-.13h-4.72c-.23,0-.42.04-.57.13-.15.09-.25.25-.32.44l-1.52,4c-.25.61-.42,1.14-.53,1.59-.11.45-.15.85-.15,1.21v4.62c0,.23.04.38.13.47.11.11.27.15.49.15h3.37v-6.27l.83-2.67c.04-.09.09-.17.15-.23.06-.04.11-.06.19-.06h.44c.06,0,.11.02.17.06.06.06.11.13.15.23l.83,2.67v6.27h.17Z"/>
      <path class="cls-1" d="m135.75,74.63h3.33c.21,0,.38-.04.47-.15.09-.09.15-.25.15-.47v-4.62c0-.36-.06-.76-.17-1.21-.11-.45-.28-.99-.51-1.59l-1.53-4c-.06-.19-.17-.34-.32-.44-.15-.09-.32-.13-.55-.13h-4.72c-.23,0-.42.04-.57.13-.15.09-.25.25-.32.44l-1.52,4c-.25.61-.42,1.14-.53,1.59-.11.45-.17.85-.17,1.21v4.62c0,.23.06.38.15.47.11.11.27.15.49.15h3.37v-6.27l.83-2.67c.04-.09.09-.17.15-.23.04-.04.11-.06.17-.06h.45c.06,0,.11.02.17.06.06.06.11.13.15.23l.83,2.67v6.27h.17Z"/>
      <path class="cls-1" d="m151.65,74.63h3.32c.23,0,.4-.04.49-.15.09-.09.15-.25.15-.47v-4.62c0-.36-.06-.76-.17-1.21-.11-.45-.28-.99-.51-1.59l-1.53-4c-.06-.19-.17-.34-.32-.44-.15-.09-.32-.13-.55-.13h-4.72c-.23,0-.42.04-.57.13-.15.09-.25.25-.32.44l-1.53,4c-.23.61-.4,1.14-.51,1.59-.11.45-.17.85-.17,1.21v4.62c0,.23.06.38.15.47.09.11.27.15.49.15h3.37v-6.27l.83-2.67c.04-.09.09-.17.13-.23.06-.04.13-.06.19-.06h.44c.08,0,.13.02.19.06.06.06.09.13.15.23l.81,2.67v6.27h.19Z"/>
    </g>
  </g>
</svg>